<mxfile host="app.diagrams.net" modified="2023-03-26T08:23:56.780Z" agent="Mozilla/5.0 (Windows NT 10.0; Win64; x64) AppleWebKit/537.36 (KHTML, like Gecko) Chrome/111.0.0.0 Safari/537.36" version="21.1.1" etag="fUmUBYfBWIgupMe_GNV1" type="device">
  <diagram id="C5RBs43oDa-KdzZeNtuy" name="Page-1">
    <mxGraphModel dx="1687" dy="936" grid="1" gridSize="10" guides="1" tooltips="1" connect="1" arrows="1" fold="1" page="1" pageScale="1" pageWidth="827" pageHeight="1169" math="0" shadow="0">
      <root>
        <mxCell id="WIyWlLk6GJQsqaUBKTNV-0" />
        <mxCell id="WIyWlLk6GJQsqaUBKTNV-1" parent="WIyWlLk6GJQsqaUBKTNV-0" />
        <mxCell id="cWiIkELzz51VzZ3dx4Zl-17" value="" style="edgeStyle=orthogonalEdgeStyle;rounded=0;orthogonalLoop=1;jettySize=auto;html=1;" edge="1" parent="WIyWlLk6GJQsqaUBKTNV-1" source="cWiIkELzz51VzZ3dx4Zl-0" target="cWiIkELzz51VzZ3dx4Zl-2">
          <mxGeometry relative="1" as="geometry" />
        </mxCell>
        <mxCell id="cWiIkELzz51VzZ3dx4Zl-0" value="Начало" style="rounded=1;whiteSpace=wrap;html=1;" vertex="1" parent="WIyWlLk6GJQsqaUBKTNV-1">
          <mxGeometry x="354" y="40" width="96" height="30" as="geometry" />
        </mxCell>
        <mxCell id="cWiIkELzz51VzZ3dx4Zl-1" value="Конец" style="rounded=1;whiteSpace=wrap;html=1;" vertex="1" parent="WIyWlLk6GJQsqaUBKTNV-1">
          <mxGeometry x="356" y="960" width="96" height="30" as="geometry" />
        </mxCell>
        <mxCell id="cWiIkELzz51VzZ3dx4Zl-32" style="edgeStyle=orthogonalEdgeStyle;rounded=0;orthogonalLoop=1;jettySize=auto;html=1;exitX=0.5;exitY=1;exitDx=0;exitDy=0;entryX=0.5;entryY=0;entryDx=0;entryDy=0;" edge="1" parent="WIyWlLk6GJQsqaUBKTNV-1" source="cWiIkELzz51VzZ3dx4Zl-2" target="cWiIkELzz51VzZ3dx4Zl-3">
          <mxGeometry relative="1" as="geometry" />
        </mxCell>
        <mxCell id="cWiIkELzz51VzZ3dx4Zl-2" value="Ввод длины массива&lt;br&gt;arrSize = ..." style="shape=parallelogram;perimeter=parallelogramPerimeter;whiteSpace=wrap;html=1;fixedSize=1;" vertex="1" parent="WIyWlLk6GJQsqaUBKTNV-1">
          <mxGeometry x="323" y="110" width="158" height="50" as="geometry" />
        </mxCell>
        <mxCell id="cWiIkELzz51VzZ3dx4Zl-18" style="edgeStyle=orthogonalEdgeStyle;rounded=0;orthogonalLoop=1;jettySize=auto;html=1;" edge="1" parent="WIyWlLk6GJQsqaUBKTNV-1" source="cWiIkELzz51VzZ3dx4Zl-3" target="cWiIkELzz51VzZ3dx4Zl-16">
          <mxGeometry relative="1" as="geometry" />
        </mxCell>
        <mxCell id="cWiIkELzz51VzZ3dx4Zl-34" value="Нет" style="edgeLabel;html=1;align=center;verticalAlign=middle;resizable=0;points=[];" vertex="1" connectable="0" parent="cWiIkELzz51VzZ3dx4Zl-18">
          <mxGeometry x="-0.4665" relative="1" as="geometry">
            <mxPoint x="10" y="-10" as="offset" />
          </mxGeometry>
        </mxCell>
        <mxCell id="cWiIkELzz51VzZ3dx4Zl-19" value="" style="edgeStyle=orthogonalEdgeStyle;rounded=0;orthogonalLoop=1;jettySize=auto;html=1;" edge="1" parent="WIyWlLk6GJQsqaUBKTNV-1" source="cWiIkELzz51VzZ3dx4Zl-3" target="cWiIkELzz51VzZ3dx4Zl-9">
          <mxGeometry relative="1" as="geometry" />
        </mxCell>
        <mxCell id="cWiIkELzz51VzZ3dx4Zl-33" value="Да" style="edgeLabel;html=1;align=center;verticalAlign=middle;resizable=0;points=[];" vertex="1" connectable="0" parent="cWiIkELzz51VzZ3dx4Zl-19">
          <mxGeometry x="-0.52" relative="1" as="geometry">
            <mxPoint x="12" as="offset" />
          </mxGeometry>
        </mxCell>
        <mxCell id="cWiIkELzz51VzZ3dx4Zl-3" value="arrSize &amp;gt; 0" style="rhombus;whiteSpace=wrap;html=1;" vertex="1" parent="WIyWlLk6GJQsqaUBKTNV-1">
          <mxGeometry x="306" y="190" width="192" height="80" as="geometry" />
        </mxCell>
        <mxCell id="cWiIkELzz51VzZ3dx4Zl-21" style="edgeStyle=orthogonalEdgeStyle;rounded=0;orthogonalLoop=1;jettySize=auto;html=1;entryX=0.5;entryY=0;entryDx=0;entryDy=0;" edge="1" parent="WIyWlLk6GJQsqaUBKTNV-1" source="cWiIkELzz51VzZ3dx4Zl-5" target="cWiIkELzz51VzZ3dx4Zl-10">
          <mxGeometry relative="1" as="geometry" />
        </mxCell>
        <mxCell id="cWiIkELzz51VzZ3dx4Zl-5" value="Ввод значений элементов входящего массива&lt;br&gt;inpArray = [...]" style="shape=parallelogram;perimeter=parallelogramPerimeter;whiteSpace=wrap;html=1;fixedSize=1;" vertex="1" parent="WIyWlLk6GJQsqaUBKTNV-1">
          <mxGeometry x="307" y="390" width="190" height="60" as="geometry" />
        </mxCell>
        <mxCell id="cWiIkELzz51VzZ3dx4Zl-20" style="edgeStyle=orthogonalEdgeStyle;rounded=0;orthogonalLoop=1;jettySize=auto;html=1;entryX=0.5;entryY=0;entryDx=0;entryDy=0;" edge="1" parent="WIyWlLk6GJQsqaUBKTNV-1" source="cWiIkELzz51VzZ3dx4Zl-9" target="cWiIkELzz51VzZ3dx4Zl-5">
          <mxGeometry relative="1" as="geometry" />
        </mxCell>
        <mxCell id="cWiIkELzz51VzZ3dx4Zl-9" value="Создание входящего массива inpArray" style="shape=process;whiteSpace=wrap;html=1;backgroundOutline=1;" vertex="1" parent="WIyWlLk6GJQsqaUBKTNV-1">
          <mxGeometry x="317" y="300" width="170" height="50" as="geometry" />
        </mxCell>
        <mxCell id="cWiIkELzz51VzZ3dx4Zl-22" value="" style="edgeStyle=orthogonalEdgeStyle;rounded=0;orthogonalLoop=1;jettySize=auto;html=1;" edge="1" parent="WIyWlLk6GJQsqaUBKTNV-1" source="cWiIkELzz51VzZ3dx4Zl-10" target="cWiIkELzz51VzZ3dx4Zl-11">
          <mxGeometry relative="1" as="geometry" />
        </mxCell>
        <mxCell id="cWiIkELzz51VzZ3dx4Zl-10" value="Создание исходящего массива outpArray" style="shape=process;whiteSpace=wrap;html=1;backgroundOutline=1;" vertex="1" parent="WIyWlLk6GJQsqaUBKTNV-1">
          <mxGeometry x="313" y="490" width="180" height="40" as="geometry" />
        </mxCell>
        <mxCell id="cWiIkELzz51VzZ3dx4Zl-23" style="edgeStyle=orthogonalEdgeStyle;rounded=0;orthogonalLoop=1;jettySize=auto;html=1;entryX=0.5;entryY=0;entryDx=0;entryDy=0;" edge="1" parent="WIyWlLk6GJQsqaUBKTNV-1" source="cWiIkELzz51VzZ3dx4Zl-11" target="cWiIkELzz51VzZ3dx4Zl-12">
          <mxGeometry relative="1" as="geometry" />
        </mxCell>
        <mxCell id="cWiIkELzz51VzZ3dx4Zl-11" value="Проверка элементов входящего массива, запись элементов исходящего массива" style="shape=process;whiteSpace=wrap;html=1;backgroundOutline=1;" vertex="1" parent="WIyWlLk6GJQsqaUBKTNV-1">
          <mxGeometry x="309.5" y="560" width="187" height="60" as="geometry" />
        </mxCell>
        <mxCell id="cWiIkELzz51VzZ3dx4Zl-26" style="edgeStyle=orthogonalEdgeStyle;rounded=0;orthogonalLoop=1;jettySize=auto;html=1;" edge="1" parent="WIyWlLk6GJQsqaUBKTNV-1" source="cWiIkELzz51VzZ3dx4Zl-12" target="cWiIkELzz51VzZ3dx4Zl-13">
          <mxGeometry relative="1" as="geometry" />
        </mxCell>
        <mxCell id="cWiIkELzz51VzZ3dx4Zl-35" value="Да" style="edgeLabel;html=1;align=center;verticalAlign=middle;resizable=0;points=[];" vertex="1" connectable="0" parent="cWiIkELzz51VzZ3dx4Zl-26">
          <mxGeometry x="-0.3538" y="-1" relative="1" as="geometry">
            <mxPoint x="12" as="offset" />
          </mxGeometry>
        </mxCell>
        <mxCell id="cWiIkELzz51VzZ3dx4Zl-29" style="edgeStyle=orthogonalEdgeStyle;rounded=0;orthogonalLoop=1;jettySize=auto;html=1;exitX=1;exitY=0.5;exitDx=0;exitDy=0;entryX=0.5;entryY=0;entryDx=0;entryDy=0;" edge="1" parent="WIyWlLk6GJQsqaUBKTNV-1" source="cWiIkELzz51VzZ3dx4Zl-12" target="cWiIkELzz51VzZ3dx4Zl-15">
          <mxGeometry relative="1" as="geometry" />
        </mxCell>
        <mxCell id="cWiIkELzz51VzZ3dx4Zl-36" value="Нет" style="edgeLabel;html=1;align=center;verticalAlign=middle;resizable=0;points=[];" vertex="1" connectable="0" parent="cWiIkELzz51VzZ3dx4Zl-29">
          <mxGeometry x="-0.0765" relative="1" as="geometry">
            <mxPoint y="-10" as="offset" />
          </mxGeometry>
        </mxCell>
        <mxCell id="cWiIkELzz51VzZ3dx4Zl-12" value="Размер массива outpArray &amp;gt; 0" style="rhombus;whiteSpace=wrap;html=1;" vertex="1" parent="WIyWlLk6GJQsqaUBKTNV-1">
          <mxGeometry x="333.5" y="650" width="139.5" height="60" as="geometry" />
        </mxCell>
        <mxCell id="cWiIkELzz51VzZ3dx4Zl-27" style="edgeStyle=orthogonalEdgeStyle;rounded=0;orthogonalLoop=1;jettySize=auto;html=1;entryX=0.5;entryY=0;entryDx=0;entryDy=0;" edge="1" parent="WIyWlLk6GJQsqaUBKTNV-1" source="cWiIkELzz51VzZ3dx4Zl-13" target="cWiIkELzz51VzZ3dx4Zl-14">
          <mxGeometry relative="1" as="geometry" />
        </mxCell>
        <mxCell id="cWiIkELzz51VzZ3dx4Zl-13" value="Вывод входящего массива" style="shape=parallelogram;perimeter=parallelogramPerimeter;whiteSpace=wrap;html=1;fixedSize=1;" vertex="1" parent="WIyWlLk6GJQsqaUBKTNV-1">
          <mxGeometry x="304" y="750" width="200" height="60" as="geometry" />
        </mxCell>
        <mxCell id="cWiIkELzz51VzZ3dx4Zl-28" style="edgeStyle=orthogonalEdgeStyle;rounded=0;orthogonalLoop=1;jettySize=auto;html=1;exitX=0.5;exitY=1;exitDx=0;exitDy=0;" edge="1" parent="WIyWlLk6GJQsqaUBKTNV-1" source="cWiIkELzz51VzZ3dx4Zl-14" target="cWiIkELzz51VzZ3dx4Zl-1">
          <mxGeometry relative="1" as="geometry" />
        </mxCell>
        <mxCell id="cWiIkELzz51VzZ3dx4Zl-14" value="Вывод исходящего массива" style="shape=parallelogram;perimeter=parallelogramPerimeter;whiteSpace=wrap;html=1;fixedSize=1;" vertex="1" parent="WIyWlLk6GJQsqaUBKTNV-1">
          <mxGeometry x="303" y="840" width="200" height="60" as="geometry" />
        </mxCell>
        <mxCell id="cWiIkELzz51VzZ3dx4Zl-30" style="edgeStyle=orthogonalEdgeStyle;rounded=0;orthogonalLoop=1;jettySize=auto;html=1;exitX=0.5;exitY=1;exitDx=0;exitDy=0;entryX=1;entryY=0.5;entryDx=0;entryDy=0;" edge="1" parent="WIyWlLk6GJQsqaUBKTNV-1" source="cWiIkELzz51VzZ3dx4Zl-15" target="cWiIkELzz51VzZ3dx4Zl-1">
          <mxGeometry relative="1" as="geometry" />
        </mxCell>
        <mxCell id="cWiIkELzz51VzZ3dx4Zl-15" value="Вывод входящего массива.&lt;br&gt;Вывод сообщения &quot;В массиве отсутствуют элементы с длиной &amp;lt;= 3 символа&quot;" style="shape=parallelogram;perimeter=parallelogramPerimeter;whiteSpace=wrap;html=1;fixedSize=1;" vertex="1" parent="WIyWlLk6GJQsqaUBKTNV-1">
          <mxGeometry x="550" y="780" width="230" height="70" as="geometry" />
        </mxCell>
        <mxCell id="cWiIkELzz51VzZ3dx4Zl-31" style="edgeStyle=orthogonalEdgeStyle;rounded=0;orthogonalLoop=1;jettySize=auto;html=1;exitX=0.5;exitY=1;exitDx=0;exitDy=0;entryX=0;entryY=0.5;entryDx=0;entryDy=0;" edge="1" parent="WIyWlLk6GJQsqaUBKTNV-1" source="cWiIkELzz51VzZ3dx4Zl-16" target="cWiIkELzz51VzZ3dx4Zl-1">
          <mxGeometry relative="1" as="geometry" />
        </mxCell>
        <mxCell id="cWiIkELzz51VzZ3dx4Zl-16" value="Вывод сообщения: &quot;Вы ввели отрицательный размер массива, такого быть не может!&lt;span style=&quot;background-color: initial;&quot;&gt;&quot;&lt;/span&gt;" style="shape=parallelogram;perimeter=parallelogramPerimeter;whiteSpace=wrap;html=1;fixedSize=1;" vertex="1" parent="WIyWlLk6GJQsqaUBKTNV-1">
          <mxGeometry x="30" y="470" width="240" height="80" as="geometry" />
        </mxCell>
      </root>
    </mxGraphModel>
  </diagram>
</mxfile>
